<svg width="21" height="20" viewBox="0 0 21 20" fill="none" xmlns="http://www.w3.org/2000/svg">
<g clip-path="url(#clip0_3221:43921)">
<path fill-rule="evenodd" clip-rule="evenodd" d="M2.06045 10C2.06782 10.0133 2.07553 10.027 2.08357 10.0413C2.18173 10.2158 2.32949 10.4674 2.52516 10.7704C2.91713 11.3773 3.49808 12.1853 4.25377 12.9914C5.77426 14.6132 7.94292 16.1667 10.6598 16.1667C13.3767 16.1667 15.5454 14.6132 17.0659 12.9914C17.8216 12.1853 18.4025 11.3773 18.7945 10.7704C18.9902 10.4674 19.1379 10.2158 19.2361 10.0413C19.2441 10.027 19.2518 10.0133 19.2592 10C19.2518 9.98676 19.2441 9.97298 19.2361 9.95868C19.1379 9.78419 18.9902 9.53259 18.7945 9.22961C18.4025 8.62269 17.8216 7.81471 17.0659 7.00865C15.5454 5.38679 13.3767 3.83334 10.6598 3.83334C7.94292 3.83334 5.77426 5.38679 4.25377 7.00865C3.49808 7.81471 2.91713 8.62269 2.52516 9.22961C2.32949 9.53259 2.18173 9.78419 2.08357 9.95868C2.07553 9.97298 2.06782 9.98676 2.06045 10ZM19.8265 10C20.2737 9.7764 20.2736 9.77622 20.2735 9.77602L20.2725 9.77396L20.27 9.7691L20.2614 9.75227C20.2541 9.73795 20.2434 9.71748 20.2296 9.69128C20.2018 9.63888 20.1611 9.5635 20.1077 9.46842C20.0007 9.27833 19.8425 9.0091 19.6345 8.68708C19.2192 8.044 18.6022 7.18531 17.7954 6.32471C16.1909 4.61323 13.7762 2.83334 10.6598 2.83334C7.54341 2.83334 5.12874 4.61323 3.52423 6.32471C2.71741 7.18531 2.10045 8.044 1.68512 8.68708C1.47715 9.0091 1.31892 9.27833 1.212 9.46842C1.15852 9.5635 1.11781 9.63888 1.09008 9.69128C1.07622 9.71748 1.06559 9.73795 1.05823 9.75227L1.04963 9.7691L1.04718 9.77396L1.04641 9.77549C1.04631 9.77569 1.04595 9.7764 1.49316 10L1.04595 9.7764C0.975569 9.91717 0.975569 10.0829 1.04595 10.2236L1.49316 10C1.04595 10.2236 1.04585 10.2234 1.04595 10.2236L1.04641 10.2245L1.04718 10.2261L1.04963 10.2309L1.05823 10.2477C1.06559 10.2621 1.07622 10.2825 1.09008 10.3087C1.11781 10.3611 1.15852 10.4365 1.212 10.5316C1.31892 10.7217 1.47715 10.9909 1.68512 11.3129C2.10045 11.956 2.71741 12.8147 3.52423 13.6753C5.12874 15.3868 7.54341 17.1667 10.6598 17.1667C13.7762 17.1667 16.1909 15.3868 17.7954 13.6753C18.6022 12.8147 19.2192 11.956 19.6345 11.3129C19.8425 10.9909 20.0007 10.7217 20.1077 10.5316C20.1611 10.4365 20.2018 10.3611 20.2296 10.3087C20.2434 10.2825 20.2541 10.2621 20.2614 10.2477L20.27 10.2309L20.2725 10.2261L20.2732 10.2245C20.2734 10.2243 20.2737 10.2236 19.8265 10ZM19.8265 10L20.2737 10.2236C20.3441 10.0829 20.3439 9.91678 20.2735 9.77602L19.8265 10Z" fill="#999999"/>
<path d="M19.8265 10C20.2737 9.7764 20.2736 9.77622 20.2735 9.77602M19.8265 10C20.2737 10.2236 20.2734 10.2243 20.2732 10.2245L20.2725 10.2261L20.27 10.2309L20.2614 10.2477C20.2541 10.2621 20.2434 10.2825 20.2296 10.3087C20.2018 10.3611 20.1611 10.4365 20.1077 10.5316C20.0007 10.7217 19.8425 10.9909 19.6345 11.3129C19.2192 11.956 18.6022 12.8147 17.7954 13.6753C16.1909 15.3868 13.7762 17.1667 10.6598 17.1667C7.54341 17.1667 5.12874 15.3868 3.52423 13.6753C2.71741 12.8147 2.10045 11.956 1.68512 11.3129C1.47715 10.9909 1.31892 10.7217 1.212 10.5316C1.15852 10.4365 1.11781 10.3611 1.09008 10.3087C1.07622 10.2825 1.06559 10.2621 1.05823 10.2477L1.04963 10.2309L1.04718 10.2261L1.04641 10.2245L1.04595 10.2236M19.8265 10L20.2737 10.2236C20.3441 10.0829 20.3439 9.91678 20.2735 9.77602M19.8265 10L20.2735 9.77602M20.2735 9.77602L20.2725 9.77396L20.27 9.7691L20.2614 9.75227C20.2541 9.73795 20.2434 9.71748 20.2296 9.69128C20.2018 9.63888 20.1611 9.5635 20.1077 9.46842C20.0007 9.27833 19.8425 9.0091 19.6345 8.68708C19.2192 8.044 18.6022 7.18531 17.7954 6.32471C16.1909 4.61323 13.7762 2.83334 10.6598 2.83334C7.54341 2.83334 5.12874 4.61323 3.52423 6.32471C2.71741 7.18531 2.10045 8.044 1.68512 8.68708C1.47715 9.0091 1.31892 9.27833 1.212 9.46842C1.15852 9.5635 1.11781 9.63888 1.09008 9.69128C1.07622 9.71748 1.06559 9.73795 1.05823 9.75227L1.04963 9.7691L1.04718 9.77396L1.04641 9.77549C1.04631 9.77569 1.04595 9.7764 1.49316 10M1.49316 10L1.04595 9.7764C0.975569 9.91717 0.975569 10.0829 1.04595 10.2236M1.49316 10L1.04595 10.2236M1.49316 10C1.04595 10.2236 1.04585 10.2234 1.04595 10.2236M2.08357 10.0413C2.07553 10.027 2.06782 10.0133 2.06045 10C2.06782 9.98676 2.07553 9.97298 2.08357 9.95868C2.18173 9.78419 2.32949 9.53259 2.52516 9.22961C2.91713 8.62269 3.49808 7.81471 4.25377 7.00865C5.77426 5.38679 7.94292 3.83334 10.6598 3.83334C13.3767 3.83334 15.5454 5.38679 17.0659 7.00865C17.8216 7.81471 18.4025 8.62269 18.7945 9.22961C18.9902 9.53259 19.1379 9.78419 19.2361 9.95868C19.2441 9.97298 19.2518 9.98676 19.2592 10C19.2518 10.0133 19.2441 10.027 19.2361 10.0413C19.1379 10.2158 18.9902 10.4674 18.7945 10.7704C18.4025 11.3773 17.8216 12.1853 17.0659 12.9914C15.5454 14.6132 13.3767 16.1667 10.6598 16.1667C7.94292 16.1667 5.77426 14.6132 4.25377 12.9914C3.49808 12.1853 2.91713 11.3773 2.52516 10.7704C2.32949 10.4674 2.18173 10.2158 2.08357 10.0413Z" stroke="#999999" stroke-width="0.2" stroke-linecap="round" stroke-linejoin="round"/>
<path fill-rule="evenodd" clip-rule="evenodd" d="M10.6602 8C9.55559 8 8.66016 8.89543 8.66016 10C8.66016 11.1046 9.55559 12 10.6602 12C11.7647 12 12.6602 11.1046 12.6602 10C12.6602 8.89543 11.7647 8 10.6602 8ZM7.66016 10C7.66016 8.34315 9.0033 7 10.6602 7C12.317 7 13.6602 8.34315 13.6602 10C13.6602 11.6569 12.317 13 10.6602 13C9.0033 13 7.66016 11.6569 7.66016 10Z" fill="#999999" stroke="#999999" stroke-width="0.2" stroke-linecap="round" stroke-linejoin="round"/>
</g>
<defs>
<clipPath id="clip0_3221:43921">
<rect width="20" height="20" fill="white" transform="translate(0.660156)"/>
</clipPath>
</defs>
</svg>
