<svg width="24" height="25" viewBox="0 0 24 25" fill="none" xmlns="http://www.w3.org/2000/svg">
<path d="M11.0473 23.2899H12.9638C13.5921 23.2899 14.0634 22.9129 14.1995 22.295L14.7232 20.0852C15.0792 19.9596 15.4144 19.8234 15.7285 19.6768L17.666 20.8707C18.1791 21.1953 18.797 21.143 19.2264 20.7136L20.5773 19.3626C21.0067 18.9333 21.0696 18.2944 20.724 17.7708L19.5406 15.8543C19.6872 15.5401 19.8233 15.205 19.928 14.8804L22.1587 14.3567C22.7766 14.2206 23.1431 13.7493 23.1431 13.121V11.2359C23.1431 10.618 22.7766 10.1363 22.1587 10.0001L19.949 9.46602C19.8338 9.09948 19.6872 8.77483 19.5615 8.49207L20.7449 6.53369C21.08 5.99959 21.0381 5.40265 20.5878 4.9628L19.2264 3.61183C18.7865 3.21387 18.2315 3.14056 17.6974 3.4338L15.7285 4.64862C15.4248 4.502 15.0897 4.36586 14.7336 4.24019L14.1995 1.99905C14.0634 1.38116 13.5921 1.00415 12.9638 1.00415H11.0473C10.4084 1.00415 9.93718 1.38116 9.80103 1.99905L9.2774 4.22971C8.92133 4.34491 8.57574 4.48106 8.26156 4.63815L6.30318 3.4338C5.76908 3.14056 5.2245 3.2034 4.77418 3.61183L3.41274 4.9628C2.96242 5.40265 2.92053 5.99959 3.25565 6.53369L4.43905 8.49207C4.31338 8.77483 4.17724 9.09948 4.05157 9.46602L1.84185 10.0001C1.22396 10.1363 0.857422 10.618 0.857422 11.2359V13.121C0.857422 13.7493 1.22396 14.2206 1.84185 14.3567L4.07251 14.8804C4.17724 15.205 4.31338 15.5401 4.46 15.8543L3.27659 17.7708C2.931 18.2944 2.99383 18.9333 3.43368 19.3626L4.77418 20.7136C5.20356 21.143 5.82144 21.1953 6.34507 20.8707L8.27203 19.6768C8.58621 19.8234 8.92133 19.9596 9.2774 20.0852L9.80103 22.295C9.93718 22.9129 10.4084 23.2899 11.0473 23.2899ZM12.0003 15.8124C9.98954 15.8124 8.34534 14.1577 8.34534 12.1365C8.34534 10.1363 9.98954 8.49207 12.0003 8.49207C14.0215 8.49207 15.6657 10.1363 15.6657 12.1365C15.6657 14.1577 14.0215 15.8124 12.0003 15.8124Z" fill="black"/>
</svg>
